<?xml version="1.0" encoding="utf-8"?>
<!-- Generator: Adobe Illustrator 27.6.1, SVG Export Plug-In . SVG Version: 6.00 Build 0)  -->
<svg version="1.1" id="Layer_1" xmlns="http://www.w3.org/2000/svg" xmlns:xlink="http://www.w3.org/1999/xlink" x="0px" y="0px"
	 viewBox="0 0 14.9 14.9" style="enable-background:new 0 0 14.9 14.9;" xml:space="preserve">
<style type="text/css">
	.st0{fill-rule:evenodd;clip-rule:evenodd;fill:#87878a;}
	.st1{fill-rule:evenodd;clip-rule:evenodd;fill:#87878a;}
	.st2{fill:#fbfafc;}
</style>
<path class="st0" d="M5.2,5.1c0,0-0.6,0.8,0.3,1.3C7,7.1,8.9,6.7,10.2,6.9c0,0-3.1-1.5-3.8-1.6C5.6,5,5.2,5.1,5.2,5.1z"/>
<path class="st0" d="M4.1,8c0,0,0.7-0.3,0.9-0.2c0.3,0.1,0.5,0.8,0.5,0.8S5,8.5,4.6,8.3L4.1,8z"/>
<path class="st0" d="M9.3,8.4c1.1,0.5,2.2,1,3.4,1.4c0,0-1,0-1.7-0.3c-0.8-0.3-2-0.8-2-0.8L8.7,8.5L9.3,8.4z"/>
<path class="st1" d="M3.7,6C3.6,6,3.4,6,3.3,6.1c-0.2,0-0.4,0.2-0.5,0.4C2.5,6.9,2.5,7.2,2.5,7.2l0.1,0.6h0.2c0,0,0.2,0.1,0.5-0.1
	l0.1-0.1c0.3-0.2,0.4-0.4,0.5-0.9C4,6.5,3.9,6.2,3.7,6z M3.3,7.5C3.3,7.5,3.3,7.6,3.3,7.5C3.3,7.6,3.2,7.6,3.3,7.5
	C3.2,7.5,3.2,7.4,3.3,7.5L3.3,7.5C3.3,7.4,3.4,7.4,3.3,7.5z"/>
<path class="st2" d="M10.5,8.3C11,8.2,11.6,8.2,12.1,8c-0.5-0.1-0.9-0.4-1.3-0.6l0,0c0.6,0,1.4,0,2.1-0.1c-0.7-0.3-1.6-0.7-2.6-1
	C10.1,6.2,9.9,6.1,9.6,6C8.9,5.8,8.2,5.6,7.5,5.4C6.9,5.2,6.3,5.1,5.7,5c-0.3,0-0.6,0-1,0C4.6,5,4.6,5,4.5,5.1
	C4.2,5.2,3.9,5.4,3.7,5.7c0,0,0,0,0,0.1C3.5,5.8,3.3,5.9,3.2,6c-0.7,0.4-1,1.1-0.6,1.9c0,0.6,0.1,1,0.6,1.3c0.1,0,0.2,0.1,0.2,0.1
	C3.3,9,3.3,8.8,3.3,8.5c0-0.2,0.2-0.4,0.3-0.5c0,0,0.1-0.1,0.2-0.1C4,8.1,4.4,8.3,4.7,8.5c0.2,0.1,0.5,0.2,0.7,0.2
	c0,0.4-0.4,0.7-0.7,0.9H4.6H4.3L4.1,9.9h2.5L6.5,9.7H5.8c0.3-0.3,0.6-0.6,0.8-0.9c0.3,0,0.6,0,0.9-0.1c0.3,0,0.7-0.1,1-0.1
	C8.9,8.8,9.2,9,9.6,9.2c0.2,0.1,0.5,0.2,0.7,0.3c0.6,0.2,1.3,0.4,2,0.5c0.4,0.1,0.5,0.1,0.9-0.1C12.2,9.4,11.3,8.9,10.5,8.3z
	 M11.4,8l-1,0.2h-0.1C10,8,9.8,7.8,9.6,7.7C9.5,7.6,9.4,7.5,9.3,7.4h0.3c0.2,0,0.5,0,0.7,0l0,0L11.4,8z M4.6,5.3L4.6,5.3
	c0.4-0.1,0.7-0.1,1.1,0c0.6,0.1,1.2,0.2,1.8,0.4C8.2,5.8,8.9,6,9.6,6.3c0.2,0.1,0.5,0.2,0.7,0.3C11,6.8,11.5,7,11.9,7.2
	c-0.5,0-1,0-1.6,0c-0.2,0-0.5,0-0.7,0s-0.3,0-0.5,0c-0.4-0.4-1-0.7-1.6-1C7.1,6.1,6.8,6,6.4,5.9C6.2,5.8,5.9,5.8,5.7,5.8
	c-0.3-0.1-0.6-0.1-1-0.1c-0.3,0-0.5,0-0.8,0.1C4.1,5.5,4.4,5.4,4.6,5.3z M8.8,7.2c-0.3,0-0.7,0-1.3,0S6.3,7.1,5.7,7.1
	C5.3,7,5,6.9,4.7,6.8c-0.1,0-0.1-0.1-0.1-0.1C4.4,6.5,4.3,6.2,4.3,5.9c0.1,0,0.3,0,0.4,0c0.3,0,0.6,0,1,0.1c0.2,0,0.4,0.1,0.7,0.1
	c0.4,0.1,0.8,0.2,1.1,0.4C7.9,6.7,8.4,6.9,8.8,7.2z M3.7,7.7C3.4,7.8,3.3,8,3.2,8.3c0,0,0,0,0,0.1C3.1,8.5,3.1,8.7,3.1,8.9
	c-0.3-0.3-0.3-0.6-0.3-1C2.5,7.2,2.6,6.6,3.2,6.2C3.3,6.1,3.4,6.1,3.5,6C3.3,6.6,3.4,7.1,3.7,7.7L3.7,7.7C3.7,7.6,3.7,7.7,3.7,7.7z
	 M4.7,8.2C4.5,8.1,4.2,7.9,4,7.7c0.1-0.1,0.4-0.1,0.5,0c0.1,0,0.1,0,0.2,0C5,7.8,5.3,8,5.4,8.3v0.1c0,0,0,0,0,0.1
	C5.2,8.4,5,8.3,4.7,8.2z M5.7,9.4C5.6,9.5,5.5,9.6,5.5,9.7H5.1c0.3-0.2,0.6-0.5,0.6-0.9l0,0c0.2,0,0.4,0,0.6,0
	C6.1,9,5.9,9.2,5.7,9.4z M7.5,8.5c-0.2,0-0.4,0-0.6,0C7,8.4,7.3,8.3,7.5,8.3s0.4,0,0.6,0.1L7.5,8.5z M7.5,8.1c-0.4,0-0.7,0.2-1,0.5
	c-0.3,0-0.5,0-0.8,0l0,0V8.5c0-0.1,0-0.1-0.1-0.2C5.5,8,5.4,7.8,5.2,7.7C5,7.6,4.9,7.5,4.7,7.5c-0.3-0.1-0.6-0.1-0.8,0
	C3.8,7.4,3.7,7.2,3.7,6.9c0-0.2,0-0.4,0-0.7c0-0.1,0.1-0.2,0.1-0.3c0.1,0,0.1,0,0.2,0c0.1,0,0.1,0,0.2,0c0,0.3,0.1,0.6,0.3,0.9
	C4.5,6.9,4.6,7,4.7,7c0.3,0.1,0.6,0.2,1,0.3c0.6,0.1,1.2,0.1,1.8,0.1s1.1,0,1.5,0C9.2,7.6,9.4,7.8,9.6,8c0.1,0,0.2,0.1,0.3,0.2H9.6
	l-1,0.2C8.3,8.2,7.9,8.1,7.5,8.1z M12.1,9.7c-0.6-0.1-1.2-0.3-1.8-0.5C10.1,9.1,9.8,9,9.6,8.9C9.4,8.8,9.1,8.7,8.9,8.6l0.7-0.1
	l0.6-0.1c0.1,0,0.1,0.1,0.2,0.1c0.7,0.5,1.4,0.9,2.2,1.3C12.4,9.8,12.3,9.7,12.1,9.7z"/>
</svg>
