<svg id="Layer_1" data-name="Layer 1" xmlns="http://www.w3.org/2000/svg" viewBox="0 0 350 350"><defs><style>.cls-1,.cls-2{fill:none;}.cls-2,.cls-3{stroke:#231f20;stroke-miterlimit:10;stroke-width:0.25px;}.cls-2{fill-rule:evenodd;}</style></defs><g id="background"><rect class="cls-1" x="51.98" y="111.41" width="492.02" height="114.8"/></g><g id="logo"><path class="cls-2" d="M108.37,137.42a36.38,36.38,0,0,0-9.73,2.1A20,20,0,0,0,88,147.72c-5.58,9.63-5.1,15.86-5.1,15.86L85.49,176l3.19.82s4.3,1.06,10-2.22a20,20,0,0,0,2.54-1.64c7-5.17,9.12-8.87,11.38-18.68A20,20,0,0,0,108.37,137.42Zm-8.65,32.21a2.48,2.48,0,0,1-1.08,1.18,1.79,1.79,0,0,1-1.38.1,9.35,9.35,0,0,1,1.38-4.56c.18-.29.38-.62.61-1A5.58,5.58,0,0,1,99.72,169.63Z"/><path class="cls-3" d="M249.58,186.59c11.21-1.79,23.22-3.08,34.08-6.25-10.48-3.07-18.31-7.63-28.1-12.55h1c13.6-.29,29.69-.75,43.17-1.87-14.22-6-33.19-13.81-53.58-21.43-4.92-1.87-10.05-3.71-15.15-5.53-14.76-5.25-29.95-10.13-44.2-13.94a230.45,230.45,0,0,0-37.63-7.25,69.65,69.65,0,0,0-20.28.72,31.49,31.49,0,0,0-3.83,1.07,37.49,37.49,0,0,0-18.63,13.23c-.24.37-.49.73-.72,1.1a43.41,43.41,0,0,0-9.48,3.58C81.5,145.18,76.32,160.33,84,177.72c-.9,12.17,2.69,21.15,12.27,26.81a34.58,34.58,0,0,0,4.92,2.43c-1.41-6-2.79-11.27-1.38-17.47a19.45,19.45,0,0,1,6.56-10.89,20.82,20.82,0,0,1,3.28-2.23c4.35,5.77,11.49,10.28,19.13,13.52A84.13,84.13,0,0,0,144,194.67c-.34,8.73-7.65,15.44-15.18,19.13-.74.36-1.48.69-2.2,1H120l-4.4,4.67H169l-3.28-4.67H151a246.6,246.6,0,0,0,17.32-18.67c6.15-.24,12.33-.68,18.52-1.19,7.16-.58,14.33-1.25,21.46-1.81A188.41,188.41,0,0,0,231,204.61c4.92,2.12,10,4.12,15.15,5.94a212.65,212.65,0,0,0,40.74,10.37c8,1.09,10.77,1.83,18-2.4A637.77,637.77,0,0,1,249.58,186.59Zm18-7.58-21.32,3.41-2.43.33c-4.35-2.95-8.69-6.05-12.86-9.33-2.13-1.64-4.22-3.41-6.22-5.22H231q7.28,0,14.56-.19l.59.29ZM126.65,124c.74-.26,1.5-.48,2.27-.67a62,62,0,0,1,20.28-.92,228.37,228.37,0,0,1,37.63,7.35c14.66,3.94,30,9,44.28,14,5.23,1.87,10.31,3.76,15.15,5.58,13.32,5,24.85,9.84,32.8,13.12q-16.4.59-32.8.92c-5,.09-10.1.17-15.15.21h-11c-8.39-8.32-20.69-15.09-33.19-20.12a177.9,177.9,0,0,0-22.63-7.37c-4.92-1.21-9.85-2.25-15-3.05A138.1,138.1,0,0,0,129,131.3a101.6,101.6,0,0,0-16.16,1.1A35.67,35.67,0,0,1,126.65,124Zm86.42,39.69c-6,0-15.53.14-26.24-.08a260.59,260.59,0,0,1-37.63-3c-8.33-1.45-15.54-3.59-20.28-6.69a17.72,17.72,0,0,1-2.91-2.26,17.09,17.09,0,0,1-5.15-15.33c2.68-.18,5.4-.25,8.12-.23a134.2,134.2,0,0,1,20.22,1.78c4.71.77,9.35,1.74,13.86,2.87a174.46,174.46,0,0,1,23.77,7.84A106.19,106.19,0,0,1,213.07,163.64Zm-106.61,9.27a24.25,24.25,0,0,0-10.2,12.37c-.15.41-.29.82-.42,1.24A29.71,29.71,0,0,0,94.75,198c-5.52-5.8-6.64-13.4-6-21.12-6.45-14.12-4.31-26.75,7.51-34.06a35.58,35.58,0,0,1,6.74-3.28c-3.72,10.25-1.64,22.05,3.53,31.53l.75,1.35Zm22.46,11.84c-5.83-2.67-11.34-6.1-14.62-10.2,2.2-1.05,8-1.21,10.5-.92a25.19,25.19,0,0,1,4.2.84,20.29,20.29,0,0,1,13.56,11.77c.31.79.57,1.55.8,2.28.12.43.23.86.33,1.28a84.42,84.42,0,0,1-14.77-5.06ZM149.2,210c-1.64,1.64-3.28,3.28-5,4.84h-7.87c6.56-4.56,11.95-11,12.46-19.31h.41a97.2,97.2,0,0,0,12.88.73C158,201,153.66,205.56,149.2,210Zm37.63-19.78c-4.55.36-9.09.72-13.62,1a23,23,0,0,1,13.62-4.82,33.51,33.51,0,0,1,13.61,2.69Zm0-8.46a27.45,27.45,0,0,0-20.73,9.84,100.45,100.45,0,0,1-16.9-.74l-.64-.1a26.82,26.82,0,0,0-.6-2.8,27.54,27.54,0,0,0-1.17-3.53,23.82,23.82,0,0,0-8.28-10.51,27.82,27.82,0,0,0-9.59-4.25,30.84,30.84,0,0,0-17.44.9,41.84,41.84,0,0,1-5-12.74,31.84,31.84,0,0,1,0-13.74,24.75,24.75,0,0,1,2.3-6.07c1.23-.28,2.49-.53,3.77-.74s2.3-.36,3.46-.51a22,22,0,0,0,6.56,18,24.32,24.32,0,0,0,6.32,4.45,73.73,73.73,0,0,0,20.28,6,266.47,266.47,0,0,0,37.63,3.09c12.51.27,23.93,0,31.16,0a124.65,124.65,0,0,0,13,11.07c2.06,1.64,4.16,3.06,6.23,4.52l-6.23,1-21.62,3.43A43.34,43.34,0,0,0,186.83,181.72ZM284,215.91a262.37,262.37,0,0,1-37.85-10.2c-5.2-1.82-10.3-3.8-15.15-5.92a143.76,143.76,0,0,1-15.5-7.77l15.5-2.48,11.77-1.87,3.38,2.26c14.76,9.75,30.28,18.7,45.77,27.1C289.9,216.85,287.31,216.52,284,215.91Z"/></g></svg>